<svg width="149" height="160" viewBox="0 0 149 160" fill="none" xmlns="http://www.w3.org/2000/svg">
<path d="M138.4 0H54.0504C48.2704 0 43.5704 4.7 43.5704 10.48V10.78L8.40044 17.89C2.74044 19.04 -0.939562 24.58 0.210438 30.24L24.7404 151.6C25.7504 156.56 30.1304 160 35.0104 160C35.7004 160 36.3904 159.93 37.0904 159.79L111.36 144.77H138.4C144.18 144.77 148.88 140.07 148.88 134.29V10.48C148.88 4.7 144.18 0 138.4 0ZM35.1004 149.92C34.8804 149.96 34.6604 149.82 34.6204 149.6L10.0804 28.25C10.0404 28.03 10.1804 27.81 10.4004 27.77L43.5704 21.06V134.29C43.5704 140.07 48.2704 144.77 54.0504 144.77H60.5604L35.1004 149.92ZM112.172 91.592L101.739 91.626L104.453 100.442C104.772 101.479 103.997 102.529 102.912 102.529H89.5444C88.4594 102.529 87.6844 101.479 88.0034 100.442L90.7114 91.644L80.2844 91.574C73.1954 90.87 67.6584 84.89 67.6584 77.616C67.6584 70.341 73.1954 64.362 80.2844 63.658L82.2604 63.653L82.2704 58.865C82.9744 51.776 88.9544 46.239 96.2284 46.239C103.502 46.239 109.482 51.776 110.186 58.865L110.196 63.67L112.172 63.675C119.261 64.379 124.798 70.359 124.798 77.633C124.798 84.907 119.261 90.888 112.172 91.592Z" fill="black"/>
</svg>
