<svg width="91" height="91" viewBox="0 0 91 91" fill="none" xmlns="http://www.w3.org/2000/svg">
<path d="M57.717 42.9526C57.8225 43.2378 57.7404 43.562 57.5139 43.7651L53.467 47.7182C52.5412 48.6166 52.1193 49.9174 52.342 51.187L53.2951 56.7651C53.3459 57.062 53.2248 57.3628 52.9826 57.5463C52.7287 57.7026 52.4084 57.7026 52.1545 57.5463L47.1389 54.9058C45.9944 54.3042 44.6272 54.3042 43.4827 54.9058L38.4671 57.5463C38.2132 57.7026 37.8929 57.7026 37.639 57.5463C37.3968 57.3628 37.2757 57.062 37.3265 56.7651L38.2796 51.187C38.5022 49.9175 38.0804 48.6167 37.1546 47.7182L33.1077 43.7494C32.8811 43.5463 32.7991 43.2221 32.9046 42.9369C32.9944 42.6478 33.2444 42.4408 33.5452 42.4057L39.1546 41.5932C40.428 41.4057 41.5257 40.6049 42.0921 39.4525L44.6077 34.3745C44.7288 34.0932 45.0061 33.9135 45.3108 33.9135C45.6155 33.9135 45.8928 34.0932 46.0139 34.3745L48.5295 39.4525C49.0959 40.6048 50.1936 41.4057 51.467 41.5932L57.0764 42.4057C57.3811 42.4447 57.6311 42.6596 57.717 42.9526ZM79.686 45.312C79.686 54.4292 76.0649 63.171 69.62 69.621C63.1708 76.0663 54.429 79.687 45.311 79.687C36.193 79.687 27.452 76.0659 21.002 69.621C14.5567 63.1718 10.936 54.43 10.936 45.312C10.936 36.194 14.5571 27.453 21.002 21.003C27.4512 14.5577 36.193 10.937 45.311 10.937C54.429 10.937 63.17 14.5581 69.62 21.003C76.0653 27.4522 79.686 36.194 79.686 45.312ZM60.686 41.9995C60.2407 40.5854 59.0298 39.5464 57.561 39.3276L51.9516 38.5151C51.6977 38.4682 51.4789 38.3081 51.3578 38.0776L48.8578 32.9995C48.1977 31.6636 46.8345 30.8159 45.3423 30.8159C43.8501 30.8159 42.4868 31.6636 41.8267 32.9995L39.3267 38.0776C39.2056 38.3081 38.9868 38.4682 38.7329 38.5151L33.1235 39.3276C31.6547 39.5463 30.436 40.5776 29.9751 41.9917C29.5142 43.4058 29.8931 44.9565 30.9517 45.9995L34.9829 49.9995C35.1665 50.1831 35.2485 50.4448 35.2016 50.7026L34.2485 56.2495C33.9946 57.7183 34.5961 59.2026 35.7993 60.0776C37.0024 60.9565 38.604 61.0698 39.9204 60.3745L44.936 57.812C45.1704 57.687 45.4516 57.687 45.686 57.812L50.7016 60.4526C51.2602 60.7495 51.8813 60.9057 52.5141 60.9057C53.3383 60.8979 54.143 60.6362 54.811 60.1557C56.018 59.2807 56.6274 57.7963 56.3735 56.3276L55.4204 50.7338C55.3735 50.476 55.4555 50.2143 55.6391 50.0307L59.7016 46.0776C60.8032 45.0307 61.1899 43.4331 60.686 41.9995ZM90.624 45.312C90.624 57.332 85.8506 68.855 77.351 77.351C68.8549 85.851 57.331 90.624 45.312 90.624C33.293 90.624 21.769 85.8506 13.273 77.351C4.773 68.8549 0 57.331 0 45.312C0 33.293 4.7734 21.769 13.273 13.273C21.7691 4.773 33.293 0 45.312 0C57.331 0 68.855 4.7734 77.351 13.273C85.851 21.7691 90.624 33.293 90.624 45.312ZM82.8115 45.312C82.8115 35.3667 78.8623 25.828 71.8275 18.796C64.7963 11.7608 55.2575 7.812 45.3115 7.812C35.3655 7.812 25.8275 11.7612 18.7955 18.796C11.7603 25.8272 7.8115 35.366 7.8115 45.312C7.8115 55.258 11.7607 64.796 18.7955 71.828C25.8267 78.8632 35.3655 82.812 45.3115 82.812C55.2575 82.812 64.7955 78.8628 71.8275 71.828C78.8627 64.7968 82.8115 55.258 82.8115 45.312Z" fill="black"/>
</svg>
