<svg width="73" height="94" viewBox="0 0 73 94" fill="none" xmlns="http://www.w3.org/2000/svg">
<path d="M30 15C30 6.7157 23.2843 0 15 0C6.71576 0 0 6.7157 0 15C0 23.2842 6.71576 30 15 30C23.2843 30 30 23.2842 30 15ZM22.2672 14.2817C21.9732 14.5844 21.5821 14.7368 21.191 14.7368C20.8145 14.7368 20.4376 14.5961 20.1461 14.3129L16.5001 10.7735V22.7729C16.5001 23.6015 15.8287 24.2729 15.0001 24.2729C14.1714 24.2729 13.5001 23.6015 13.5001 22.7729V10.7735L9.85406 14.3129C9.25983 14.8901 8.31012 14.8759 7.73297 14.2817C7.15582 13.687 7.16998 12.7377 7.76422 12.1606L13.9551 6.15082C14.5372 5.58539 15.463 5.58539 16.045 6.15082L22.2359 12.1606C22.8301 12.7377 22.8443 13.687 22.2672 14.2817ZM57.6215 0C49.3373 0 42.6215 6.7157 42.6215 15C42.6215 23.2842 49.3373 30 57.6215 30C65.9058 30 72.6215 23.2842 72.6215 15C72.6215 6.7157 65.9058 0 57.6215 0ZM64.858 17.8393L58.6666 23.8491C58.3755 24.1318 57.9986 24.2729 57.6216 24.2729C57.2447 24.2729 56.8677 24.1318 56.5767 23.8491L50.3853 17.8393C49.7906 17.2626 49.7769 16.3129 50.3541 15.7182C50.9312 15.1249 51.8804 15.1103 52.4752 15.687L56.1216 19.2265V7.22699C56.1216 6.39838 56.7935 5.72699 57.6216 5.72699C58.4498 5.72699 59.1216 6.39838 59.1216 7.22699V19.2265L62.7681 15.687C63.3648 15.1103 64.3121 15.1249 64.8892 15.7182C65.4664 16.3129 65.4527 17.2626 64.858 17.8393ZM67.084 59.1636V64.1046C67.084 64.1954 67.0776 64.2867 67.0654 64.377L63.5659 89.8257C63.2939 91.8057 61.6021 93.2808 59.6033 93.2808H38.7419C36.978 93.2808 35.4224 92.1251 34.9126 90.4366L33.5029 85.7662C33.3259 85.1797 33.0166 84.6417 32.5986 84.1934L18.6514 69.2422C16.7815 67.4634 16.7434 64.4493 18.6812 62.6241C20.3748 61.0289 23.05 61.0914 24.8413 62.5762L31.9146 68.4395V36.6768C31.9146 34.1065 34.1206 32.0513 36.7427 32.3013C39.0283 32.5196 40.707 34.5699 40.707 36.8663V54.9097C40.7075 52.3399 42.9128 50.2852 45.5347 50.5347C47.8206 50.7525 49.4995 52.8028 49.4995 55.0992V56.9424C49.4995 54.3721 51.7051 52.317 54.3271 52.567C56.613 52.7852 58.2917 54.8355 58.2917 57.1319V58.9752C58.2917 56.4044 60.4978 54.3497 63.1199 54.5997C65.4053 54.8179 67.084 56.8677 67.084 59.1636Z" fill="black"/>
</svg>
