<svg width="90" height="26" viewBox="0 0 90 26" fill="none" xmlns="http://www.w3.org/2000/svg">
<path d="M51.9882 23.0845C51.9882 21.9243 52.9257 20.9868 54.0859 20.9868H65.9769V20.2876H49.8909C48.7307 20.2876 47.7932 19.3501 47.7932 18.1899C47.7932 17.0297 48.7307 16.0922 49.8909 16.0922H65.9769V15.393H47.0939C45.9337 15.393 44.9962 14.4554 44.9962 13.2952C44.9962 12.135 45.9337 11.1976 47.0939 11.1976H65.9769V10.4983L49.8909 10.4944C48.7307 10.4944 47.7932 9.55692 47.7932 8.39672C47.7932 7.23652 48.7307 6.29903 49.8909 6.29903H65.9769V5.5998H59.7347C58.1605 5.5998 56.8831 4.32251 56.8831 2.74821V2.50993C56.8831 1.90055 57.3792 1.40443 57.9886 1.40443H76.4656C79.5867 1.41224 82.2664 3.27552 83.4734 5.95132H90.0007V20.6393H83.4734C82.2625 23.319 79.575 25.1862 76.4422 25.1862H65.9732L54.0862 25.1823C52.926 25.1823 51.9882 24.2447 51.9882 23.0845ZM18.0352 23.2837C18.0352 24.6782 19.1641 25.8071 20.5586 25.8071H28.0195C29.414 25.8071 30.5429 24.6782 30.5429 23.2837C30.5429 21.8892 29.414 20.7603 28.0195 20.7603H20.5586C19.1641 20.7603 18.0352 21.8892 18.0352 23.2837ZM28.6802 14.9907H23.7661C23.7426 15.854 23.1215 16.6118 22.2309 16.8423L21.9848 16.9009C21.6528 16.9868 21.2973 17.0337 20.9418 17.0337C20.1957 17.0337 19.473 16.8345 18.8559 16.4556C18.7074 16.3658 18.5707 16.2603 18.4379 16.1509C18.184 16.5454 18.0317 17.0103 18.0317 17.5142C18.0317 18.9087 19.1606 20.0376 20.5551 20.0376H28.6762C30.0707 20.0376 31.1996 18.9087 31.1996 17.5142C31.2035 16.1197 30.0747 14.9907 28.6802 14.9907ZM22.9536 9.43601C23.2465 11.1274 23.5434 12.8501 23.7895 14.2876H27.4536V13.9009L39.4336 16.9204C40.7852 17.2602 42.1563 16.4399 42.4961 15.0884C42.836 13.7368 42.0156 12.3657 40.6641 12.0259L26.6721 8.49859L40.6641 4.97129C42.0157 4.63145 42.836 3.26039 42.4961 1.90879C42.1563 0.55719 40.7852 -0.263111 39.4336 0.0767893L22.0786 4.45179C22.3208 5.79159 22.6333 7.59221 22.9536 9.43601ZM17.3091 23.28C17.3091 22.0183 18.0474 20.9284 19.0982 20.4011C18.0474 19.8621 17.3091 18.7722 17.3091 17.5105C17.3091 16.8113 17.5395 16.1589 17.9302 15.6394C17.3911 14.8386 16.9107 13.3699 16.6411 12.3894C16.4692 11.8113 16.3793 11.4011 16.3793 11.4011C15.9575 11.9207 15.3676 12.4597 14.8012 12.9128C13.4809 13.9323 10.8715 15.444 7.94185 14.3816V13.741L7.98091 13.6316C9.96921 14.4402 11.8325 13.8426 13.0395 13.2019C14.6801 12.3309 15.8286 11.03 16.1489 10.4831C16.1489 10.4831 15.3403 7.29174 15.3403 7.28394L16.0395 7.12378C16.0395 7.12378 16.3403 8.32688 16.4809 8.89328C16.7075 9.80344 16.938 10.7136 17.1645 11.6277C17.2661 12.0417 17.7661 13.9207 17.9575 14.4207C18.1997 15.0574 18.5864 15.5926 19.1684 15.9441C19.6879 16.2644 20.2973 16.4324 20.9379 16.4324C21.2387 16.4324 21.5395 16.3933 21.8363 16.323L22.0746 16.2644C22.8363 16.0652 23.3051 15.3425 23.1332 14.6433C23.1332 14.6433 21.102 2.81529 21.0043 2.51429C20.9731 2.43616 20.934 2.35413 20.8949 2.28382C20.7231 1.93226 20.516 1.5846 20.266 1.29554C19.5668 0.486945 18.4965 0.0572358 17.3754 0.0963358C17.3754 0.0963358 17.2973 0.096335 17.1567 0.115867C17.1254 0.115867 17.0981 0.115868 17.0551 0.127586C15.4067 0.307276 7.58633 1.27599 5.99613 3.70569C5.80472 3.98694 5.51566 4.17444 5.17582 4.17444L0.0117188 4.17053C0.00781175 4.17053 0 4.17444 0 4.18225V22.9202H5.5195C5.69138 22.9202 5.84762 22.9593 5.98825 23.0492L8.26945 24.35C9.94915 25.307 11.8476 25.8109 13.7773 25.8109H18.5506C17.8006 25.2093 17.3091 24.3112 17.3091 23.28Z" fill="black"/>
</svg>
