<svg width="140" height="128" viewBox="0 0 140 128" fill="none" xmlns="http://www.w3.org/2000/svg">
<path d="M100.625 105.306H13.125V109.684H100.625V105.306Z" fill="black"/>
<path d="M30.625 57.1387H13.125V74.6539H30.625V57.1387Z" fill="black"/>
<path d="M56.8706 74.6539C61.7031 74.6539 65.6206 70.733 65.6206 65.8963C65.6206 61.0596 61.7031 57.1387 56.8706 57.1387C52.0381 57.1387 48.1206 61.0596 48.1206 65.8963C48.1206 70.733 52.0381 74.6539 56.8706 74.6539Z" fill="black"/>
<path d="M91.875 57.1387L83.8731 74.6539H99.8725L91.875 57.1387Z" fill="black"/>
<path d="M140 37.4344C140 31.3873 135.104 26.4874 129.062 26.4874C123.021 26.4874 118.125 31.3873 118.125 37.4344C118.125 42.7328 121.879 47.1466 126.875 48.1581V74.6543H113.75V26.4874L77.2888 18.0626C77.6781 17.0861 77.77 16.0045 77.4331 14.9536C76.8556 13.1977 75.3025 11.9585 73.4694 11.8053L64.575 11.0346L61.0881 2.79806C60.3663 1.09908 58.7125 0 56.8706 0C55.0287 0 53.375 1.09908 52.6531 2.79806L49.1662 11.0346L40.2763 11.8053C38.4388 11.9585 36.8856 13.1934 36.3081 14.9624C35.9712 16.0089 36.0631 17.0905 36.4525 18.067L0 26.4874V127.2H113.75V83.4119H126.875H131.25H135.625V74.6543H131.25V48.1581C136.246 47.1466 140 42.7328 140 37.4344ZM43.75 44.0026H70V87.7907H43.75V44.0026ZM52.1675 15.1638L57.0631 4.50579L61.5738 15.1638L73.2069 16.53L64.4787 24.1185L67.0075 35.6085C66.9637 35.6391 66.9156 35.6479 66.885 35.6479L56.8706 29.6489L46.655 35.3983L49.2625 24.1229L40.6481 16.1666L52.1675 15.1638ZM8.75 44.0026H35V87.7907H8.75V44.0026ZM105 114.064H8.75V100.927H105V114.064ZM105 87.7907H78.75V44.0026H105V87.7907Z" fill="black"/>
</svg>
