<svg width="80" height="80" viewBox="0 0 80 80" fill="none" xmlns="http://www.w3.org/2000/svg">
<path d="M0 24.801H24.801V0H0V24.801ZM4.6016 6.5C4.00004 6 4.00004 5.1016 4.6016 4.5C5.1016 4 6 4 6.5 4.5L12.3984 10.3984L18.3007 4.5C18.8007 4 19.6991 4 20.1991 4.5C20.8007 5.10156 20.8007 5.8984 20.1991 6.5L14.3007 12.3984L20.1991 18.2968C20.8007 18.8984 20.8007 19.6952 20.1991 20.2968C19.9999 20.5976 19.5975 20.6952 19.1991 20.6952C18.8007 20.6952 18.4999 20.5937 18.1991 20.2968L12.3007 14.3984L6.4023 20.2968C6.20308 20.5976 5.80074 20.6952 5.4023 20.6952C5.00386 20.6952 4.70308 20.5937 4.4023 20.2968C3.80074 19.7968 3.80074 18.8984 4.4023 18.2968L10.3007 12.3984L4.6016 6.5ZM0 80H24.801V55.199H0V80ZM12.398 59.301C16.9996 59.301 20.6988 63.0002 20.6988 67.6018C20.6988 72.2034 16.9996 75.9026 12.398 75.9026C7.7964 75.9026 4.0972 72.2034 4.0972 67.6018C4.10111 63.0002 7.898 59.301 12.398 59.301ZM8.523 63.7151C10.6714 61.5667 14.1519 61.5667 16.3003 63.7151C18.4487 65.8635 18.4487 69.344 16.3003 71.4924C14.1519 73.6408 10.6714 73.6408 8.523 71.4924C6.3746 69.3479 6.3746 65.8635 8.523 63.7151ZM55.199 80.0001H80V55.1991H55.199V80.0001ZM59.699 61.6991C59.0974 61.1991 59.0974 60.3007 59.699 59.6991C60.199 59.1991 61.0974 59.1991 61.5974 59.6991L67.4997 65.6014L73.3981 59.703C73.8981 59.203 74.7965 59.203 75.2965 59.703C75.8981 60.3046 75.8981 61.1014 75.2965 61.703L69.3981 67.6014L75.3004 73.4998C75.902 74.1014 75.902 74.8982 75.3004 75.4998C75.1012 75.8006 74.6988 75.8982 74.3004 75.8982C73.902 75.8982 73.6012 75.7967 73.3004 75.4998L67.402 69.6014L61.4997 75.4998C61.3005 75.8006 60.8981 75.8982 60.4997 75.8982C60.1013 75.8982 59.8005 75.8006 59.4997 75.4998C58.8981 74.9998 58.8981 74.1014 59.4997 73.4998L65.3981 67.6014L59.699 61.6991ZM27.601 52.3983H52.402L52.3981 27.6013H27.6011L27.601 52.3983ZM39.999 31.6993C44.6006 31.6993 48.2998 35.3985 48.2998 40.0001C48.2998 44.6017 44.6006 48.3009 39.999 48.3009C35.3974 48.3009 31.6982 44.6017 31.6982 40.0001C31.6982 35.3985 35.3974 31.6993 39.999 31.6993ZM39.999 34.5001C43.0381 34.5001 45.499 36.961 45.499 40.0001C45.499 43.0392 43.0381 45.5001 39.999 45.5001C36.9599 45.5001 34.499 43.0392 34.499 40.0001C34.499 36.961 36.9599 34.5001 39.999 34.5001ZM27.601 0.000100136H52.402V24.8011H27.601V0.000100136ZM55.199 0.000100136H80V24.8011H55.199V0.000100136ZM55.199 27.6021H80V52.4031L55.199 52.3992V27.6021ZM0 27.6021H24.801V52.4031L0 52.3992V27.6021ZM27.602 55.2001H52.403L52.3991 80.0011H27.6021L27.602 55.2001Z" fill="black"/>
</svg>
